<?xml version="1.0"?>
<svg xmlns="http://www.w3.org/2000/svg" xmlns:xlink="http://www.w3.org/1999/xlink" xmlns:svgjs="http://svgjs.com/svgjs" version="1.1" width="512" height="512" x="0" y="0" viewBox="0 0 480.014 480.014" style="enable-background:new 0 0 512 512" xml:space="preserve"><g><g xmlns="http://www.w3.org/2000/svg"><path d="m409.719 71.346c-93.781-93.783-245.82-93.859-339.595.165-90.841 91.083-92.576 234.829-10.13 328.267 38.333 43.442 90.915 71.557 148.061 79.163 4.409.589 8.407-2.525 8.986-6.874.583-4.38-2.495-8.402-6.875-8.985-110.685-14.734-194.152-110.186-194.152-222.03 0-123.514 100.486-224 224-224s224 100.486 224 224c0 110.916-79.366 203.961-188.716 221.241-4.364.69-7.343 4.787-6.653 9.151.689 4.363 4.784 7.335 9.151 6.653 114.98-18.172 202.218-117.866 202.218-237.046 0-64.106-24.965-124.375-70.295-169.705z" fill="#ced4da" data-original="#000000" style=""/><path d="m134.311 73.598c-57.793 36.556-92.297 99.154-92.297 167.453 0 109.178 88.822 198 198 198 55.417 0 107.177-22.868 144.397-62.525 83.257-88.708 68.039-231.728-34.593-300.165-51.817-34.554-115.26-42.81-174.053-22.65-4.179 1.433-6.406 5.982-4.973 10.162s5.981 6.406 10.162 4.973c54.038-18.527 112.352-10.937 159.987 20.827 95.191 63.477 107.579 195.165 31.803 275.904-34.786 37.063-81.924 57.475-132.731 57.475-100.355 0-182-81.645-182-182 0-62.781 31.72-120.325 84.85-153.932 3.734-2.361 4.847-7.303 2.485-11.037-2.361-3.734-7.302-4.848-11.037-2.485z" fill="#ced4da" data-original="#000000" style=""/><path d="m313.035 233.46c4.063 1.734 8.763-.159 10.495-4.224 7.282-17.09 29.659-75.43 11.875-108.634-5.733-10.704-15.281-17.579-27.612-19.881-11.156-2.084-21.591.761-30.185 8.221-19.993 17.357-26.841 55.886-26.688 89.193-7.262-.465-14.553-.465-21.815 0 .154-33.308-6.693-71.836-26.687-89.193-8.592-7.459-19.03-10.298-30.184-8.221-12.331 2.302-21.879 9.177-27.613 19.882-16.03 29.929.569 80.277 9.332 102.434-51.22 35.753-53.038 96.972-1.609 134.187 48.652 35.203 126.671 35.214 175.339 0 41.252-29.849 47.427-74.267 24.427-108.274-2.477-3.66-7.449-4.618-11.109-2.145-3.659 2.476-4.619 7.449-2.145 11.109 6.974 10.309 10.509 21.339 10.509 32.785 0 42.41-49.055 76.913-109.352 76.913-60.296 0-109.351-34.503-109.351-76.913 0-22.043 13.631-43.107 37.399-57.793 3.364-2.079 4.705-6.304 3.155-9.941-14.487-33.998-32.165-99.772 3.954-106.515 6.364-1.187 11.845.308 16.76 4.574 14.238 12.361 22.666 46.738 20.972 85.542-.215 4.924 4.04 8.875 8.934 8.293 12.062-1.43 24.295-1.43 36.355 0 4.905.58 9.15-3.376 8.935-8.293-1.693-38.805 6.735-73.181 20.973-85.542 4.914-4.266 10.393-5.761 16.76-4.574 36.147 6.748 18.398 72.617 3.954 106.515-1.734 4.064.158 8.763 4.222 10.495z" fill="#ced4da" data-original="#000000" style=""/><path d="m215.274 262.922c-4.418 0-8 3.582-8 8v14.432c0 4.418 3.582 8 8 8s8-3.582 8-8v-14.432c0-4.418-3.581-8-8-8z" fill="#ced4da" data-original="#000000" style=""/><path d="m256.753 270.922v14.432c0 4.418 3.582 8 8 8s8-3.582 8-8v-14.432c0-4.418-3.582-8-8-8s-8 3.582-8 8z" fill="#ced4da" data-original="#000000" style=""/></g></g></svg>
