<?xml version="1.0"?>
<svg xmlns="http://www.w3.org/2000/svg" xmlns:xlink="http://www.w3.org/1999/xlink" xmlns:svgjs="http://svgjs.com/svgjs" version="1.1" width="512" height="512" x="0" y="0" viewBox="0 0 512 512" style="enable-background:new 0 0 512 512" xml:space="preserve"><g><linearGradient xmlns="http://www.w3.org/2000/svg" id="SVGID_1_" gradientUnits="userSpaceOnUse" x1="256" x2="256" y1="476" y2="36"><stop stop-opacity="1" stop-color="#009efd" offset="0"/><stop stop-opacity="1" stop-color="#f9b707" offset="0"/></linearGradient><g xmlns="http://www.w3.org/2000/svg"><g><path d="m452.045 116h-20.045v-20.044c0-33.06-26.896-59.956-59.955-59.956h-312.045c-33.084 0-60 26.916-60 60v320c0 33.084 26.916 60 60 60h392.045c33.06 0 59.955-26.896 59.955-59.955 0-69.51 0-164.441 0-240.089 0-33.06-26.896-59.956-59.955-59.956zm-392.045-40h312.045c11.003 0 19.955 8.952 19.955 19.956v20.044h-332c-11.028 0-20-8.972-20-20s8.972-20 20-20zm412 260h-80c-22.056 0-40-17.944-40-40s17.944-40 40-40h80zm0-120h-80c-44.112 0-80 35.888-80 80s35.888 80 80 80h80v40.045c0 11.003-8.952 19.955-19.955 19.955h-392.045c-11.028 0-20-8.972-20-20v-263.44c6.26 2.22 12.989 3.44 20 3.44h392.045c11.003 0 19.955 8.952 19.955 19.955z" fill="url(#SVGID_1_)" data-original="url(#SVGID_1_)" style=""/></g></g></g></svg>
